<?xml version="1.0" encoding="UTF-8" ?>
<svg version="1.1" width="130" height="32" xmlns="http://www.w3.org/2000/svg">
<rect x="47" y="2" width="1" height="1" fill="#B01A45" />
<rect x="48" y="2" width="1" height="1" fill="#B01A45" />
<rect x="49" y="2" width="1" height="1" fill="#B01A45" />
<rect x="79" y="2" width="1" height="1" fill="#B01A45" />
<rect x="80" y="2" width="1" height="1" fill="#B01A45" />
<rect x="81" y="2" width="1" height="1" fill="#B01A45" />
<rect x="82" y="2" width="1" height="1" fill="#B01A45" />
<rect x="83" y="2" width="1" height="1" fill="#B01A45" />
<rect x="43" y="3" width="1" height="1" fill="#B01A45" />
<rect x="44" y="3" width="1" height="1" fill="#B01A45" />
<rect x="45" y="3" width="1" height="1" fill="#B01A45" />
<rect x="46" y="3" width="1" height="1" fill="#B01A45" />
<rect x="47" y="3" width="1" height="1" fill="#B01A45" />
<rect x="48" y="3" width="1" height="1" fill="#B01A45" />
<rect x="49" y="3" width="1" height="1" fill="#B01A45" />
<rect x="50" y="3" width="1" height="1" fill="#B01A45" />
<rect x="51" y="3" width="1" height="1" fill="#B01A45" />
<rect x="52" y="3" width="1" height="1" fill="#B01A45" />
<rect x="53" y="3" width="1" height="1" fill="#B01A45" />
<rect x="54" y="3" width="1" height="1" fill="#B01A45" />
<rect x="76" y="3" width="1" height="1" fill="#B01A45" />
<rect x="77" y="3" width="1" height="1" fill="#B01A45" />
<rect x="78" y="3" width="1" height="1" fill="#B01A45" />
<rect x="79" y="3" width="1" height="1" fill="#B01A45" />
<rect x="80" y="3" width="1" height="1" fill="#B01A45" />
<rect x="81" y="3" width="1" height="1" fill="#B01A45" />
<rect x="82" y="3" width="1" height="1" fill="#B01A45" />
<rect x="83" y="3" width="1" height="1" fill="#B01A45" />
<rect x="84" y="3" width="1" height="1" fill="#B01A45" />
<rect x="85" y="3" width="1" height="1" fill="#B01A45" />
<rect x="86" y="3" width="1" height="1" fill="#B01A45" />
<rect x="41" y="4" width="1" height="1" fill="#B01A45" />
<rect x="42" y="4" width="1" height="1" fill="#B01A45" />
<rect x="43" y="4" width="1" height="1" fill="#B01A45" />
<rect x="44" y="4" width="1" height="1" fill="#B01A45" />
<rect x="45" y="4" width="1" height="1" fill="#B01A45" />
<rect x="46" y="4" width="1" height="1" fill="#B01A45" />
<rect x="47" y="4" width="1" height="1" fill="#B01A45" />
<rect x="48" y="4" width="1" height="1" fill="#B01A45" />
<rect x="49" y="4" width="1" height="1" fill="#B01A45" />
<rect x="50" y="4" width="1" height="1" fill="#B01A45" />
<rect x="51" y="4" width="1" height="1" fill="#B01A45" />
<rect x="52" y="4" width="1" height="1" fill="#B01A45" />
<rect x="53" y="4" width="1" height="1" fill="#B01A45" />
<rect x="54" y="4" width="1" height="1" fill="#B01A45" />
<rect x="55" y="4" width="1" height="1" fill="#B01A45" />
<rect x="56" y="4" width="1" height="1" fill="#B01A45" />
<rect x="73" y="4" width="1" height="1" fill="#B01A45" />
<rect x="74" y="4" width="1" height="1" fill="#B01A45" />
<rect x="75" y="4" width="1" height="1" fill="#B01A45" />
<rect x="76" y="4" width="1" height="1" fill="#B01A45" />
<rect x="77" y="4" width="1" height="1" fill="#B01A45" />
<rect x="78" y="4" width="1" height="1" fill="#B01A45" />
<rect x="79" y="4" width="1" height="1" fill="#B01A45" />
<rect x="80" y="4" width="1" height="1" fill="#B01A45" />
<rect x="81" y="4" width="1" height="1" fill="#B01A45" />
<rect x="82" y="4" width="1" height="1" fill="#B01A45" />
<rect x="83" y="4" width="1" height="1" fill="#B01A45" />
<rect x="84" y="4" width="1" height="1" fill="#B01A45" />
<rect x="85" y="4" width="1" height="1" fill="#B01A45" />
<rect x="86" y="4" width="1" height="1" fill="#B01A45" />
<rect x="87" y="4" width="1" height="1" fill="#B01A45" />
<rect x="88" y="4" width="1" height="1" fill="#B01A45" />
<rect x="40" y="5" width="1" height="1" fill="#B01A45" />
<rect x="41" y="5" width="1" height="1" fill="#B01A45" />
<rect x="42" y="5" width="1" height="1" fill="#B01A45" />
<rect x="43" y="5" width="1" height="1" fill="#B01A45" />
<rect x="44" y="5" width="1" height="1" fill="#B01A45" />
<rect x="45" y="5" width="1" height="1" fill="#B01A45" />
<rect x="46" y="5" width="1" height="1" fill="#B01A45" />
<rect x="47" y="5" width="1" height="1" fill="#B01A45" />
<rect x="48" y="5" width="1" height="1" fill="#B01A45" />
<rect x="49" y="5" width="1" height="1" fill="#B01A45" />
<rect x="50" y="5" width="1" height="1" fill="#B01A45" />
<rect x="51" y="5" width="1" height="1" fill="#B01A45" />
<rect x="52" y="5" width="1" height="1" fill="#B01A45" />
<rect x="53" y="5" width="1" height="1" fill="#B01A45" />
<rect x="54" y="5" width="1" height="1" fill="#B01A45" />
<rect x="55" y="5" width="1" height="1" fill="#B01A45" />
<rect x="56" y="5" width="1" height="1" fill="#B01A45" />
<rect x="57" y="5" width="1" height="1" fill="#B01A45" />
<rect x="58" y="5" width="1" height="1" fill="#B01A45" />
<rect x="72" y="5" width="1" height="1" fill="#B01A45" />
<rect x="73" y="5" width="1" height="1" fill="#B01A45" />
<rect x="74" y="5" width="1" height="1" fill="#B01A45" />
<rect x="75" y="5" width="1" height="1" fill="#B01A45" />
<rect x="76" y="5" width="1" height="1" fill="#B01A45" />
<rect x="77" y="5" width="1" height="1" fill="#B01A45" />
<rect x="78" y="5" width="1" height="1" fill="#B01A45" />
<rect x="79" y="5" width="1" height="1" fill="#B01A45" />
<rect x="80" y="5" width="1" height="1" fill="#B01A45" />
<rect x="81" y="5" width="1" height="1" fill="#B01A45" />
<rect x="82" y="5" width="1" height="1" fill="#B01A45" />
<rect x="83" y="5" width="1" height="1" fill="#B01A45" />
<rect x="84" y="5" width="1" height="1" fill="#B01A45" />
<rect x="85" y="5" width="1" height="1" fill="#B01A45" />
<rect x="86" y="5" width="1" height="1" fill="#B01A45" />
<rect x="87" y="5" width="1" height="1" fill="#B01A45" />
<rect x="88" y="5" width="1" height="1" fill="#B01A45" />
<rect x="89" y="5" width="1" height="1" fill="#B01A45" />
<rect x="90" y="5" width="1" height="1" fill="#B01A45" />
<rect x="40" y="6" width="1" height="1" fill="#B01A45" />
<rect x="41" y="6" width="1" height="1" fill="#B01A45" />
<rect x="42" y="6" width="1" height="1" fill="#B01A45" />
<rect x="43" y="6" width="1" height="1" fill="#B01A45" />
<rect x="44" y="6" width="1" height="1" fill="#B01A45" />
<rect x="45" y="6" width="1" height="1" fill="#B01A45" />
<rect x="46" y="6" width="1" height="1" fill="#B01A45" />
<rect x="47" y="6" width="1" height="1" fill="#B01A45" />
<rect x="48" y="6" width="1" height="1" fill="#B01A45" />
<rect x="49" y="6" width="1" height="1" fill="#B01A45" />
<rect x="50" y="6" width="1" height="1" fill="#B01A45" />
<rect x="51" y="6" width="1" height="1" fill="#B01A45" />
<rect x="52" y="6" width="1" height="1" fill="#B01A45" />
<rect x="53" y="6" width="1" height="1" fill="#B01A45" />
<rect x="54" y="6" width="1" height="1" fill="#B01A45" />
<rect x="55" y="6" width="1" height="1" fill="#B01A45" />
<rect x="56" y="6" width="1" height="1" fill="#B01A45" />
<rect x="57" y="6" width="1" height="1" fill="#B01A45" />
<rect x="58" y="6" width="1" height="1" fill="#B01A45" />
<rect x="71" y="6" width="1" height="1" fill="#B01A45" />
<rect x="72" y="6" width="1" height="1" fill="#B01A45" />
<rect x="73" y="6" width="1" height="1" fill="#B01A45" />
<rect x="74" y="6" width="1" height="1" fill="#B01A45" />
<rect x="75" y="6" width="1" height="1" fill="#B01A45" />
<rect x="76" y="6" width="1" height="1" fill="#B01A45" />
<rect x="77" y="6" width="1" height="1" fill="#B01A45" />
<rect x="78" y="6" width="1" height="1" fill="#B01A45" />
<rect x="79" y="6" width="1" height="1" fill="#B01A45" />
<rect x="80" y="6" width="1" height="1" fill="#B01A45" />
<rect x="81" y="6" width="1" height="1" fill="#B01A45" />
<rect x="82" y="6" width="1" height="1" fill="#B01A45" />
<rect x="83" y="6" width="1" height="1" fill="#B01A45" />
<rect x="84" y="6" width="1" height="1" fill="#B01A45" />
<rect x="85" y="6" width="1" height="1" fill="#B01A45" />
<rect x="86" y="6" width="1" height="1" fill="#B01A45" />
<rect x="87" y="6" width="1" height="1" fill="#B01A45" />
<rect x="88" y="6" width="1" height="1" fill="#B01A45" />
<rect x="89" y="6" width="1" height="1" fill="#B01A45" />
<rect x="90" y="6" width="1" height="1" fill="#B01A45" />
<rect x="91" y="6" width="1" height="1" fill="#B01A45" />
<rect x="39" y="7" width="1" height="1" fill="#B01A45" />
<rect x="40" y="7" width="1" height="1" fill="#B01A45" />
<rect x="41" y="7" width="1" height="1" fill="#B01A45" />
<rect x="42" y="7" width="1" height="1" fill="#B01A45" />
<rect x="43" y="7" width="1" height="1" fill="#B01A45" />
<rect x="44" y="7" width="1" height="1" fill="#B01A45" />
<rect x="45" y="7" width="1" height="1" fill="#B01A45" />
<rect x="46" y="7" width="1" height="1" fill="#B01A45" />
<rect x="47" y="7" width="1" height="1" fill="#B01A45" />
<rect x="48" y="7" width="1" height="1" fill="#B01A45" />
<rect x="49" y="7" width="1" height="1" fill="#B01A45" />
<rect x="50" y="7" width="1" height="1" fill="#B01A45" />
<rect x="51" y="7" width="1" height="1" fill="#B01A45" />
<rect x="52" y="7" width="1" height="1" fill="#B01A45" />
<rect x="53" y="7" width="1" height="1" fill="#B01A45" />
<rect x="54" y="7" width="1" height="1" fill="#B01A45" />
<rect x="55" y="7" width="1" height="1" fill="#B01A45" />
<rect x="56" y="7" width="1" height="1" fill="#B01A45" />
<rect x="57" y="7" width="1" height="1" fill="#B01A45" />
<rect x="58" y="7" width="1" height="1" fill="#B01A45" />
<rect x="70" y="7" width="1" height="1" fill="#B01A45" />
<rect x="71" y="7" width="1" height="1" fill="#B01A45" />
<rect x="72" y="7" width="1" height="1" fill="#B01A45" />
<rect x="73" y="7" width="1" height="1" fill="#B01A45" />
<rect x="74" y="7" width="1" height="1" fill="#B01A45" />
<rect x="75" y="7" width="1" height="1" fill="#B01A45" />
<rect x="76" y="7" width="1" height="1" fill="#B01A45" />
<rect x="77" y="7" width="1" height="1" fill="#B01A45" />
<rect x="78" y="7" width="1" height="1" fill="#B01A45" />
<rect x="79" y="7" width="1" height="1" fill="#B01A45" />
<rect x="80" y="7" width="1" height="1" fill="#B01A45" />
<rect x="81" y="7" width="1" height="1" fill="#B01A45" />
<rect x="82" y="7" width="1" height="1" fill="#B01A45" />
<rect x="83" y="7" width="1" height="1" fill="#B01A45" />
<rect x="84" y="7" width="1" height="1" fill="#B01A45" />
<rect x="85" y="7" width="1" height="1" fill="#B01A45" />
<rect x="86" y="7" width="1" height="1" fill="#B01A45" />
<rect x="87" y="7" width="1" height="1" fill="#B01A45" />
<rect x="88" y="7" width="1" height="1" fill="#B01A45" />
<rect x="89" y="7" width="1" height="1" fill="#B01A45" />
<rect x="90" y="7" width="1" height="1" fill="#B01A45" />
<rect x="39" y="8" width="1" height="1" fill="#B01A45" />
<rect x="40" y="8" width="1" height="1" fill="#B01A45" />
<rect x="41" y="8" width="1" height="1" fill="#B01A45" />
<rect x="42" y="8" width="1" height="1" fill="#B01A45" />
<rect x="43" y="8" width="1" height="1" fill="#B01A45" />
<rect x="44" y="8" width="1" height="1" fill="#B01A45" />
<rect x="45" y="8" width="1" height="1" fill="#B01A45" />
<rect x="46" y="8" width="1" height="1" fill="#B01A45" />
<rect x="50" y="8" width="1" height="1" fill="#B01A45" />
<rect x="51" y="8" width="1" height="1" fill="#B01A45" />
<rect x="52" y="8" width="1" height="1" fill="#B01A45" />
<rect x="53" y="8" width="1" height="1" fill="#B01A45" />
<rect x="54" y="8" width="1" height="1" fill="#B01A45" />
<rect x="55" y="8" width="1" height="1" fill="#B01A45" />
<rect x="56" y="8" width="1" height="1" fill="#B01A45" />
<rect x="57" y="8" width="1" height="1" fill="#B01A45" />
<rect x="69" y="8" width="1" height="1" fill="#B01A45" />
<rect x="70" y="8" width="1" height="1" fill="#B01A45" />
<rect x="71" y="8" width="1" height="1" fill="#B01A45" />
<rect x="72" y="8" width="1" height="1" fill="#B01A45" />
<rect x="73" y="8" width="1" height="1" fill="#B01A45" />
<rect x="74" y="8" width="1" height="1" fill="#B01A45" />
<rect x="75" y="8" width="1" height="1" fill="#B01A45" />
<rect x="76" y="8" width="1" height="1" fill="#B01A45" />
<rect x="77" y="8" width="1" height="1" fill="#B01A45" />
<rect x="78" y="8" width="1" height="1" fill="#B01A45" />
<rect x="79" y="8" width="1" height="1" fill="#B01A45" />
<rect x="80" y="8" width="1" height="1" fill="#B01A45" />
<rect x="81" y="8" width="1" height="1" fill="#B01A45" />
<rect x="82" y="8" width="1" height="1" fill="#B01A45" />
<rect x="83" y="8" width="1" height="1" fill="#B01A45" />
<rect x="84" y="8" width="1" height="1" fill="#B01A45" />
<rect x="85" y="8" width="1" height="1" fill="#B01A45" />
<rect x="86" y="8" width="1" height="1" fill="#B01A45" />
<rect x="87" y="8" width="1" height="1" fill="#B01A45" />
<rect x="88" y="8" width="1" height="1" fill="#B01A45" />
<rect x="89" y="8" width="1" height="1" fill="#B01A45" />
<rect x="90" y="8" width="1" height="1" fill="#B01A45" />
<rect x="38" y="9" width="1" height="1" fill="#B01A45" />
<rect x="39" y="9" width="1" height="1" fill="#B01A45" />
<rect x="40" y="9" width="1" height="1" fill="#B01A45" />
<rect x="41" y="9" width="1" height="1" fill="#B01A45" />
<rect x="42" y="9" width="1" height="1" fill="#B01A45" />
<rect x="43" y="9" width="1" height="1" fill="#B01A45" />
<rect x="44" y="9" width="1" height="1" fill="#B01A45" />
<rect x="45" y="9" width="1" height="1" fill="#B01A45" />
<rect x="53" y="9" width="1" height="1" fill="#B01A45" />
<rect x="54" y="9" width="1" height="1" fill="#B01A45" />
<rect x="55" y="9" width="1" height="1" fill="#B01A45" />
<rect x="56" y="9" width="1" height="1" fill="#B01A45" />
<rect x="68" y="9" width="1" height="1" fill="#B01A45" />
<rect x="69" y="9" width="1" height="1" fill="#B01A45" />
<rect x="70" y="9" width="1" height="1" fill="#B01A45" />
<rect x="71" y="9" width="1" height="1" fill="#B01A45" />
<rect x="72" y="9" width="1" height="1" fill="#B01A45" />
<rect x="73" y="9" width="1" height="1" fill="#B01A45" />
<rect x="74" y="9" width="1" height="1" fill="#B01A45" />
<rect x="75" y="9" width="1" height="1" fill="#B01A45" />
<rect x="76" y="9" width="1" height="1" fill="#B01A45" />
<rect x="77" y="9" width="1" height="1" fill="#B01A45" />
<rect x="78" y="9" width="1" height="1" fill="#B01A45" />
<rect x="84" y="9" width="1" height="1" fill="#B01A45" />
<rect x="85" y="9" width="1" height="1" fill="#B01A45" />
<rect x="86" y="9" width="1" height="1" fill="#B01A45" />
<rect x="87" y="9" width="1" height="1" fill="#B01A45" />
<rect x="88" y="9" width="1" height="1" fill="#B01A45" />
<rect x="89" y="9" width="1" height="1" fill="#B01A45" />
<rect x="38" y="10" width="1" height="1" fill="#B01A45" />
<rect x="39" y="10" width="1" height="1" fill="#B01A45" />
<rect x="40" y="10" width="1" height="1" fill="#B01A45" />
<rect x="41" y="10" width="1" height="1" fill="#B01A45" />
<rect x="42" y="10" width="1" height="1" fill="#B01A45" />
<rect x="43" y="10" width="1" height="1" fill="#B01A45" />
<rect x="44" y="10" width="1" height="1" fill="#B01A45" />
<rect x="45" y="10" width="1" height="1" fill="#B01A45" />
<rect x="55" y="10" width="1" height="1" fill="#B01A45" />
<rect x="68" y="10" width="1" height="1" fill="#B01A45" />
<rect x="69" y="10" width="1" height="1" fill="#B01A45" />
<rect x="70" y="10" width="1" height="1" fill="#B01A45" />
<rect x="71" y="10" width="1" height="1" fill="#B01A45" />
<rect x="72" y="10" width="1" height="1" fill="#B01A45" />
<rect x="73" y="10" width="1" height="1" fill="#B01A45" />
<rect x="74" y="10" width="1" height="1" fill="#B01A45" />
<rect x="75" y="10" width="1" height="1" fill="#B01A45" />
<rect x="76" y="10" width="1" height="1" fill="#B01A45" />
<rect x="86" y="10" width="1" height="1" fill="#B01A45" />
<rect x="87" y="10" width="1" height="1" fill="#B01A45" />
<rect x="88" y="10" width="1" height="1" fill="#B01A45" />
<rect x="38" y="11" width="1" height="1" fill="#B01A45" />
<rect x="39" y="11" width="1" height="1" fill="#B01A45" />
<rect x="40" y="11" width="1" height="1" fill="#B01A45" />
<rect x="41" y="11" width="1" height="1" fill="#B01A45" />
<rect x="42" y="11" width="1" height="1" fill="#B01A45" />
<rect x="43" y="11" width="1" height="1" fill="#B01A45" />
<rect x="44" y="11" width="1" height="1" fill="#B01A45" />
<rect x="45" y="11" width="1" height="1" fill="#B01A45" />
<rect x="46" y="11" width="1" height="1" fill="#B01A45" />
<rect x="67" y="11" width="1" height="1" fill="#B01A45" />
<rect x="68" y="11" width="1" height="1" fill="#B01A45" />
<rect x="69" y="11" width="1" height="1" fill="#B01A45" />
<rect x="70" y="11" width="1" height="1" fill="#B01A45" />
<rect x="71" y="11" width="1" height="1" fill="#B01A45" />
<rect x="72" y="11" width="1" height="1" fill="#B01A45" />
<rect x="73" y="11" width="1" height="1" fill="#B01A45" />
<rect x="74" y="11" width="1" height="1" fill="#B01A45" />
<rect x="75" y="11" width="1" height="1" fill="#B01A45" />
<rect x="39" y="12" width="1" height="1" fill="#B01A45" />
<rect x="40" y="12" width="1" height="1" fill="#B01A45" />
<rect x="41" y="12" width="1" height="1" fill="#B01A45" />
<rect x="42" y="12" width="1" height="1" fill="#B01A45" />
<rect x="43" y="12" width="1" height="1" fill="#B01A45" />
<rect x="44" y="12" width="1" height="1" fill="#B01A45" />
<rect x="45" y="12" width="1" height="1" fill="#B01A45" />
<rect x="46" y="12" width="1" height="1" fill="#B01A45" />
<rect x="47" y="12" width="1" height="1" fill="#B01A45" />
<rect x="48" y="12" width="1" height="1" fill="#B01A45" />
<rect x="49" y="12" width="1" height="1" fill="#B01A45" />
<rect x="67" y="12" width="1" height="1" fill="#B01A45" />
<rect x="68" y="12" width="1" height="1" fill="#B01A45" />
<rect x="69" y="12" width="1" height="1" fill="#B01A45" />
<rect x="70" y="12" width="1" height="1" fill="#B01A45" />
<rect x="71" y="12" width="1" height="1" fill="#B01A45" />
<rect x="72" y="12" width="1" height="1" fill="#B01A45" />
<rect x="73" y="12" width="1" height="1" fill="#B01A45" />
<rect x="74" y="12" width="1" height="1" fill="#B01A45" />
<rect x="39" y="13" width="1" height="1" fill="#B01A45" />
<rect x="40" y="13" width="1" height="1" fill="#B01A45" />
<rect x="41" y="13" width="1" height="1" fill="#B01A45" />
<rect x="42" y="13" width="1" height="1" fill="#B01A45" />
<rect x="43" y="13" width="1" height="1" fill="#B01A45" />
<rect x="44" y="13" width="1" height="1" fill="#B01A45" />
<rect x="45" y="13" width="1" height="1" fill="#B01A45" />
<rect x="46" y="13" width="1" height="1" fill="#B01A45" />
<rect x="47" y="13" width="1" height="1" fill="#B01A45" />
<rect x="48" y="13" width="1" height="1" fill="#B01A45" />
<rect x="49" y="13" width="1" height="1" fill="#B01A45" />
<rect x="50" y="13" width="1" height="1" fill="#B01A45" />
<rect x="51" y="13" width="1" height="1" fill="#B01A45" />
<rect x="52" y="13" width="1" height="1" fill="#B01A45" />
<rect x="53" y="13" width="1" height="1" fill="#B01A45" />
<rect x="67" y="13" width="1" height="1" fill="#B01A45" />
<rect x="68" y="13" width="1" height="1" fill="#B01A45" />
<rect x="69" y="13" width="1" height="1" fill="#B01A45" />
<rect x="70" y="13" width="1" height="1" fill="#B01A45" />
<rect x="71" y="13" width="1" height="1" fill="#B01A45" />
<rect x="72" y="13" width="1" height="1" fill="#B01A45" />
<rect x="73" y="13" width="1" height="1" fill="#B01A45" />
<rect x="74" y="13" width="1" height="1" fill="#B01A45" />
<rect x="40" y="14" width="1" height="1" fill="#B01A45" />
<rect x="41" y="14" width="1" height="1" fill="#B01A45" />
<rect x="42" y="14" width="1" height="1" fill="#B01A45" />
<rect x="43" y="14" width="1" height="1" fill="#B01A45" />
<rect x="44" y="14" width="1" height="1" fill="#B01A45" />
<rect x="45" y="14" width="1" height="1" fill="#B01A45" />
<rect x="46" y="14" width="1" height="1" fill="#B01A45" />
<rect x="47" y="14" width="1" height="1" fill="#B01A45" />
<rect x="48" y="14" width="1" height="1" fill="#B01A45" />
<rect x="49" y="14" width="1" height="1" fill="#B01A45" />
<rect x="50" y="14" width="1" height="1" fill="#B01A45" />
<rect x="51" y="14" width="1" height="1" fill="#B01A45" />
<rect x="52" y="14" width="1" height="1" fill="#B01A45" />
<rect x="53" y="14" width="1" height="1" fill="#B01A45" />
<rect x="54" y="14" width="1" height="1" fill="#B01A45" />
<rect x="55" y="14" width="1" height="1" fill="#B01A45" />
<rect x="67" y="14" width="1" height="1" fill="#B01A45" />
<rect x="68" y="14" width="1" height="1" fill="#B01A45" />
<rect x="69" y="14" width="1" height="1" fill="#B01A45" />
<rect x="70" y="14" width="1" height="1" fill="#B01A45" />
<rect x="71" y="14" width="1" height="1" fill="#B01A45" />
<rect x="72" y="14" width="1" height="1" fill="#B01A45" />
<rect x="73" y="14" width="1" height="1" fill="#B01A45" />
<rect x="81" y="14" width="1" height="1" fill="#B01A45" />
<rect x="82" y="14" width="1" height="1" fill="#B01A45" />
<rect x="83" y="14" width="1" height="1" fill="#B01A45" />
<rect x="84" y="14" width="1" height="1" fill="#B01A45" />
<rect x="85" y="14" width="1" height="1" fill="#B01A45" />
<rect x="86" y="14" width="1" height="1" fill="#B01A45" />
<rect x="87" y="14" width="1" height="1" fill="#B01A45" />
<rect x="88" y="14" width="1" height="1" fill="#B01A45" />
<rect x="89" y="14" width="1" height="1" fill="#B01A45" />
<rect x="90" y="14" width="1" height="1" fill="#B01A45" />
<rect x="91" y="14" width="1" height="1" fill="#B01A45" />
<rect x="92" y="14" width="1" height="1" fill="#B01A45" />
<rect x="40" y="15" width="1" height="1" fill="#B01A45" />
<rect x="41" y="15" width="1" height="1" fill="#B01A45" />
<rect x="42" y="15" width="1" height="1" fill="#B01A45" />
<rect x="43" y="15" width="1" height="1" fill="#B01A45" />
<rect x="44" y="15" width="1" height="1" fill="#B01A45" />
<rect x="45" y="15" width="1" height="1" fill="#B01A45" />
<rect x="46" y="15" width="1" height="1" fill="#B01A45" />
<rect x="47" y="15" width="1" height="1" fill="#B01A45" />
<rect x="48" y="15" width="1" height="1" fill="#B01A45" />
<rect x="49" y="15" width="1" height="1" fill="#B01A45" />
<rect x="50" y="15" width="1" height="1" fill="#B01A45" />
<rect x="51" y="15" width="1" height="1" fill="#B01A45" />
<rect x="52" y="15" width="1" height="1" fill="#B01A45" />
<rect x="53" y="15" width="1" height="1" fill="#B01A45" />
<rect x="54" y="15" width="1" height="1" fill="#B01A45" />
<rect x="55" y="15" width="1" height="1" fill="#B01A45" />
<rect x="56" y="15" width="1" height="1" fill="#B01A45" />
<rect x="67" y="15" width="1" height="1" fill="#B01A45" />
<rect x="68" y="15" width="1" height="1" fill="#B01A45" />
<rect x="69" y="15" width="1" height="1" fill="#B01A45" />
<rect x="70" y="15" width="1" height="1" fill="#B01A45" />
<rect x="71" y="15" width="1" height="1" fill="#B01A45" />
<rect x="72" y="15" width="1" height="1" fill="#B01A45" />
<rect x="73" y="15" width="1" height="1" fill="#B01A45" />
<rect x="81" y="15" width="1" height="1" fill="#B01A45" />
<rect x="82" y="15" width="1" height="1" fill="#B01A45" />
<rect x="83" y="15" width="1" height="1" fill="#B01A45" />
<rect x="84" y="15" width="1" height="1" fill="#B01A45" />
<rect x="85" y="15" width="1" height="1" fill="#B01A45" />
<rect x="86" y="15" width="1" height="1" fill="#B01A45" />
<rect x="87" y="15" width="1" height="1" fill="#B01A45" />
<rect x="88" y="15" width="1" height="1" fill="#B01A45" />
<rect x="89" y="15" width="1" height="1" fill="#B01A45" />
<rect x="90" y="15" width="1" height="1" fill="#B01A45" />
<rect x="91" y="15" width="1" height="1" fill="#B01A45" />
<rect x="92" y="15" width="1" height="1" fill="#B01A45" />
<rect x="42" y="16" width="1" height="1" fill="#B01A45" />
<rect x="43" y="16" width="1" height="1" fill="#B01A45" />
<rect x="44" y="16" width="1" height="1" fill="#B01A45" />
<rect x="45" y="16" width="1" height="1" fill="#B01A45" />
<rect x="46" y="16" width="1" height="1" fill="#B01A45" />
<rect x="47" y="16" width="1" height="1" fill="#B01A45" />
<rect x="48" y="16" width="1" height="1" fill="#B01A45" />
<rect x="49" y="16" width="1" height="1" fill="#B01A45" />
<rect x="50" y="16" width="1" height="1" fill="#B01A45" />
<rect x="51" y="16" width="1" height="1" fill="#B01A45" />
<rect x="52" y="16" width="1" height="1" fill="#B01A45" />
<rect x="53" y="16" width="1" height="1" fill="#B01A45" />
<rect x="54" y="16" width="1" height="1" fill="#B01A45" />
<rect x="55" y="16" width="1" height="1" fill="#B01A45" />
<rect x="56" y="16" width="1" height="1" fill="#B01A45" />
<rect x="57" y="16" width="1" height="1" fill="#B01A45" />
<rect x="67" y="16" width="1" height="1" fill="#B01A45" />
<rect x="68" y="16" width="1" height="1" fill="#B01A45" />
<rect x="69" y="16" width="1" height="1" fill="#B01A45" />
<rect x="70" y="16" width="1" height="1" fill="#B01A45" />
<rect x="71" y="16" width="1" height="1" fill="#B01A45" />
<rect x="72" y="16" width="1" height="1" fill="#B01A45" />
<rect x="73" y="16" width="1" height="1" fill="#B01A45" />
<rect x="81" y="16" width="1" height="1" fill="#B01A45" />
<rect x="82" y="16" width="1" height="1" fill="#B01A45" />
<rect x="83" y="16" width="1" height="1" fill="#B01A45" />
<rect x="84" y="16" width="1" height="1" fill="#B01A45" />
<rect x="85" y="16" width="1" height="1" fill="#B01A45" />
<rect x="86" y="16" width="1" height="1" fill="#B01A45" />
<rect x="87" y="16" width="1" height="1" fill="#B01A45" />
<rect x="88" y="16" width="1" height="1" fill="#B01A45" />
<rect x="89" y="16" width="1" height="1" fill="#B01A45" />
<rect x="90" y="16" width="1" height="1" fill="#B01A45" />
<rect x="91" y="16" width="1" height="1" fill="#B01A45" />
<rect x="92" y="16" width="1" height="1" fill="#B01A45" />
<rect x="44" y="17" width="1" height="1" fill="#B01A45" />
<rect x="45" y="17" width="1" height="1" fill="#B01A45" />
<rect x="46" y="17" width="1" height="1" fill="#B01A45" />
<rect x="47" y="17" width="1" height="1" fill="#B01A45" />
<rect x="48" y="17" width="1" height="1" fill="#B01A45" />
<rect x="49" y="17" width="1" height="1" fill="#B01A45" />
<rect x="50" y="17" width="1" height="1" fill="#B01A45" />
<rect x="51" y="17" width="1" height="1" fill="#B01A45" />
<rect x="52" y="17" width="1" height="1" fill="#B01A45" />
<rect x="53" y="17" width="1" height="1" fill="#B01A45" />
<rect x="54" y="17" width="1" height="1" fill="#B01A45" />
<rect x="55" y="17" width="1" height="1" fill="#B01A45" />
<rect x="56" y="17" width="1" height="1" fill="#B01A45" />
<rect x="57" y="17" width="1" height="1" fill="#B01A45" />
<rect x="67" y="17" width="1" height="1" fill="#B01A45" />
<rect x="68" y="17" width="1" height="1" fill="#B01A45" />
<rect x="69" y="17" width="1" height="1" fill="#B01A45" />
<rect x="70" y="17" width="1" height="1" fill="#B01A45" />
<rect x="71" y="17" width="1" height="1" fill="#B01A45" />
<rect x="72" y="17" width="1" height="1" fill="#B01A45" />
<rect x="73" y="17" width="1" height="1" fill="#B01A45" />
<rect x="81" y="17" width="1" height="1" fill="#B01A45" />
<rect x="82" y="17" width="1" height="1" fill="#B01A45" />
<rect x="83" y="17" width="1" height="1" fill="#B01A45" />
<rect x="84" y="17" width="1" height="1" fill="#B01A45" />
<rect x="85" y="17" width="1" height="1" fill="#B01A45" />
<rect x="86" y="17" width="1" height="1" fill="#B01A45" />
<rect x="87" y="17" width="1" height="1" fill="#B01A45" />
<rect x="88" y="17" width="1" height="1" fill="#B01A45" />
<rect x="89" y="17" width="1" height="1" fill="#B01A45" />
<rect x="90" y="17" width="1" height="1" fill="#B01A45" />
<rect x="91" y="17" width="1" height="1" fill="#B01A45" />
<rect x="92" y="17" width="1" height="1" fill="#B01A45" />
<rect x="48" y="18" width="1" height="1" fill="#B01A45" />
<rect x="49" y="18" width="1" height="1" fill="#B01A45" />
<rect x="50" y="18" width="1" height="1" fill="#B01A45" />
<rect x="51" y="18" width="1" height="1" fill="#B01A45" />
<rect x="52" y="18" width="1" height="1" fill="#B01A45" />
<rect x="53" y="18" width="1" height="1" fill="#B01A45" />
<rect x="54" y="18" width="1" height="1" fill="#B01A45" />
<rect x="55" y="18" width="1" height="1" fill="#B01A45" />
<rect x="56" y="18" width="1" height="1" fill="#B01A45" />
<rect x="57" y="18" width="1" height="1" fill="#B01A45" />
<rect x="58" y="18" width="1" height="1" fill="#B01A45" />
<rect x="67" y="18" width="1" height="1" fill="#B01A45" />
<rect x="68" y="18" width="1" height="1" fill="#B01A45" />
<rect x="69" y="18" width="1" height="1" fill="#B01A45" />
<rect x="70" y="18" width="1" height="1" fill="#B01A45" />
<rect x="71" y="18" width="1" height="1" fill="#B01A45" />
<rect x="72" y="18" width="1" height="1" fill="#B01A45" />
<rect x="73" y="18" width="1" height="1" fill="#B01A45" />
<rect x="74" y="18" width="1" height="1" fill="#B01A45" />
<rect x="81" y="18" width="1" height="1" fill="#B01A45" />
<rect x="82" y="18" width="1" height="1" fill="#B01A45" />
<rect x="83" y="18" width="1" height="1" fill="#B01A45" />
<rect x="84" y="18" width="1" height="1" fill="#B01A45" />
<rect x="85" y="18" width="1" height="1" fill="#B01A45" />
<rect x="86" y="18" width="1" height="1" fill="#B01A45" />
<rect x="87" y="18" width="1" height="1" fill="#B01A45" />
<rect x="88" y="18" width="1" height="1" fill="#B01A45" />
<rect x="89" y="18" width="1" height="1" fill="#B01A45" />
<rect x="90" y="18" width="1" height="1" fill="#B01A45" />
<rect x="91" y="18" width="1" height="1" fill="#B01A45" />
<rect x="92" y="18" width="1" height="1" fill="#B01A45" />
<rect x="51" y="19" width="1" height="1" fill="#B01A45" />
<rect x="52" y="19" width="1" height="1" fill="#B01A45" />
<rect x="53" y="19" width="1" height="1" fill="#B01A45" />
<rect x="54" y="19" width="1" height="1" fill="#B01A45" />
<rect x="55" y="19" width="1" height="1" fill="#B01A45" />
<rect x="56" y="19" width="1" height="1" fill="#B01A45" />
<rect x="57" y="19" width="1" height="1" fill="#B01A45" />
<rect x="58" y="19" width="1" height="1" fill="#B01A45" />
<rect x="67" y="19" width="1" height="1" fill="#B01A45" />
<rect x="68" y="19" width="1" height="1" fill="#B01A45" />
<rect x="69" y="19" width="1" height="1" fill="#B01A45" />
<rect x="70" y="19" width="1" height="1" fill="#B01A45" />
<rect x="71" y="19" width="1" height="1" fill="#B01A45" />
<rect x="72" y="19" width="1" height="1" fill="#B01A45" />
<rect x="73" y="19" width="1" height="1" fill="#B01A45" />
<rect x="74" y="19" width="1" height="1" fill="#B01A45" />
<rect x="86" y="19" width="1" height="1" fill="#B01A45" />
<rect x="87" y="19" width="1" height="1" fill="#B01A45" />
<rect x="88" y="19" width="1" height="1" fill="#B01A45" />
<rect x="89" y="19" width="1" height="1" fill="#B01A45" />
<rect x="90" y="19" width="1" height="1" fill="#B01A45" />
<rect x="91" y="19" width="1" height="1" fill="#B01A45" />
<rect x="92" y="19" width="1" height="1" fill="#B01A45" />
<rect x="40" y="20" width="1" height="1" fill="#B01A45" />
<rect x="41" y="20" width="1" height="1" fill="#B01A45" />
<rect x="53" y="20" width="1" height="1" fill="#B01A45" />
<rect x="54" y="20" width="1" height="1" fill="#B01A45" />
<rect x="55" y="20" width="1" height="1" fill="#B01A45" />
<rect x="56" y="20" width="1" height="1" fill="#B01A45" />
<rect x="57" y="20" width="1" height="1" fill="#B01A45" />
<rect x="58" y="20" width="1" height="1" fill="#B01A45" />
<rect x="68" y="20" width="1" height="1" fill="#B01A45" />
<rect x="69" y="20" width="1" height="1" fill="#B01A45" />
<rect x="70" y="20" width="1" height="1" fill="#B01A45" />
<rect x="71" y="20" width="1" height="1" fill="#B01A45" />
<rect x="72" y="20" width="1" height="1" fill="#B01A45" />
<rect x="73" y="20" width="1" height="1" fill="#B01A45" />
<rect x="74" y="20" width="1" height="1" fill="#B01A45" />
<rect x="86" y="20" width="1" height="1" fill="#B01A45" />
<rect x="87" y="20" width="1" height="1" fill="#B01A45" />
<rect x="88" y="20" width="1" height="1" fill="#B01A45" />
<rect x="89" y="20" width="1" height="1" fill="#B01A45" />
<rect x="90" y="20" width="1" height="1" fill="#B01A45" />
<rect x="91" y="20" width="1" height="1" fill="#B01A45" />
<rect x="92" y="20" width="1" height="1" fill="#B01A45" />
<rect x="40" y="21" width="1" height="1" fill="#B01A45" />
<rect x="41" y="21" width="1" height="1" fill="#B01A45" />
<rect x="42" y="21" width="1" height="1" fill="#B01A45" />
<rect x="43" y="21" width="1" height="1" fill="#B01A45" />
<rect x="52" y="21" width="1" height="1" fill="#B01A45" />
<rect x="53" y="21" width="1" height="1" fill="#B01A45" />
<rect x="54" y="21" width="1" height="1" fill="#B01A45" />
<rect x="55" y="21" width="1" height="1" fill="#B01A45" />
<rect x="56" y="21" width="1" height="1" fill="#B01A45" />
<rect x="57" y="21" width="1" height="1" fill="#B01A45" />
<rect x="58" y="21" width="1" height="1" fill="#B01A45" />
<rect x="68" y="21" width="1" height="1" fill="#B01A45" />
<rect x="69" y="21" width="1" height="1" fill="#B01A45" />
<rect x="70" y="21" width="1" height="1" fill="#B01A45" />
<rect x="71" y="21" width="1" height="1" fill="#B01A45" />
<rect x="72" y="21" width="1" height="1" fill="#B01A45" />
<rect x="73" y="21" width="1" height="1" fill="#B01A45" />
<rect x="74" y="21" width="1" height="1" fill="#B01A45" />
<rect x="75" y="21" width="1" height="1" fill="#B01A45" />
<rect x="86" y="21" width="1" height="1" fill="#B01A45" />
<rect x="87" y="21" width="1" height="1" fill="#B01A45" />
<rect x="88" y="21" width="1" height="1" fill="#B01A45" />
<rect x="89" y="21" width="1" height="1" fill="#B01A45" />
<rect x="90" y="21" width="1" height="1" fill="#B01A45" />
<rect x="91" y="21" width="1" height="1" fill="#B01A45" />
<rect x="92" y="21" width="1" height="1" fill="#B01A45" />
<rect x="39" y="22" width="1" height="1" fill="#B01A45" />
<rect x="40" y="22" width="1" height="1" fill="#B01A45" />
<rect x="41" y="22" width="1" height="1" fill="#B01A45" />
<rect x="42" y="22" width="1" height="1" fill="#B01A45" />
<rect x="43" y="22" width="1" height="1" fill="#B01A45" />
<rect x="44" y="22" width="1" height="1" fill="#B01A45" />
<rect x="45" y="22" width="1" height="1" fill="#B01A45" />
<rect x="46" y="22" width="1" height="1" fill="#B01A45" />
<rect x="51" y="22" width="1" height="1" fill="#B01A45" />
<rect x="52" y="22" width="1" height="1" fill="#B01A45" />
<rect x="53" y="22" width="1" height="1" fill="#B01A45" />
<rect x="54" y="22" width="1" height="1" fill="#B01A45" />
<rect x="55" y="22" width="1" height="1" fill="#B01A45" />
<rect x="56" y="22" width="1" height="1" fill="#B01A45" />
<rect x="57" y="22" width="1" height="1" fill="#B01A45" />
<rect x="58" y="22" width="1" height="1" fill="#B01A45" />
<rect x="68" y="22" width="1" height="1" fill="#B01A45" />
<rect x="69" y="22" width="1" height="1" fill="#B01A45" />
<rect x="70" y="22" width="1" height="1" fill="#B01A45" />
<rect x="71" y="22" width="1" height="1" fill="#B01A45" />
<rect x="72" y="22" width="1" height="1" fill="#B01A45" />
<rect x="73" y="22" width="1" height="1" fill="#B01A45" />
<rect x="74" y="22" width="1" height="1" fill="#B01A45" />
<rect x="75" y="22" width="1" height="1" fill="#B01A45" />
<rect x="76" y="22" width="1" height="1" fill="#B01A45" />
<rect x="86" y="22" width="1" height="1" fill="#B01A45" />
<rect x="87" y="22" width="1" height="1" fill="#B01A45" />
<rect x="88" y="22" width="1" height="1" fill="#B01A45" />
<rect x="89" y="22" width="1" height="1" fill="#B01A45" />
<rect x="90" y="22" width="1" height="1" fill="#B01A45" />
<rect x="91" y="22" width="1" height="1" fill="#B01A45" />
<rect x="92" y="22" width="1" height="1" fill="#B01A45" />
<rect x="38" y="23" width="1" height="1" fill="#B01A45" />
<rect x="39" y="23" width="1" height="1" fill="#B01A45" />
<rect x="40" y="23" width="1" height="1" fill="#B01A45" />
<rect x="41" y="23" width="1" height="1" fill="#B01A45" />
<rect x="42" y="23" width="1" height="1" fill="#B01A45" />
<rect x="43" y="23" width="1" height="1" fill="#B01A45" />
<rect x="44" y="23" width="1" height="1" fill="#B01A45" />
<rect x="45" y="23" width="1" height="1" fill="#B01A45" />
<rect x="46" y="23" width="1" height="1" fill="#B01A45" />
<rect x="47" y="23" width="1" height="1" fill="#B01A45" />
<rect x="48" y="23" width="1" height="1" fill="#B01A45" />
<rect x="49" y="23" width="1" height="1" fill="#B01A45" />
<rect x="50" y="23" width="1" height="1" fill="#B01A45" />
<rect x="51" y="23" width="1" height="1" fill="#B01A45" />
<rect x="52" y="23" width="1" height="1" fill="#B01A45" />
<rect x="53" y="23" width="1" height="1" fill="#B01A45" />
<rect x="54" y="23" width="1" height="1" fill="#B01A45" />
<rect x="55" y="23" width="1" height="1" fill="#B01A45" />
<rect x="56" y="23" width="1" height="1" fill="#B01A45" />
<rect x="57" y="23" width="1" height="1" fill="#B01A45" />
<rect x="58" y="23" width="1" height="1" fill="#B01A45" />
<rect x="68" y="23" width="1" height="1" fill="#B01A45" />
<rect x="69" y="23" width="1" height="1" fill="#B01A45" />
<rect x="70" y="23" width="1" height="1" fill="#B01A45" />
<rect x="71" y="23" width="1" height="1" fill="#B01A45" />
<rect x="72" y="23" width="1" height="1" fill="#B01A45" />
<rect x="73" y="23" width="1" height="1" fill="#B01A45" />
<rect x="74" y="23" width="1" height="1" fill="#B01A45" />
<rect x="75" y="23" width="1" height="1" fill="#B01A45" />
<rect x="76" y="23" width="1" height="1" fill="#B01A45" />
<rect x="77" y="23" width="1" height="1" fill="#B01A45" />
<rect x="78" y="23" width="1" height="1" fill="#B01A45" />
<rect x="79" y="23" width="1" height="1" fill="#B01A45" />
<rect x="84" y="23" width="1" height="1" fill="#B01A45" />
<rect x="85" y="23" width="1" height="1" fill="#B01A45" />
<rect x="86" y="23" width="1" height="1" fill="#B01A45" />
<rect x="87" y="23" width="1" height="1" fill="#B01A45" />
<rect x="88" y="23" width="1" height="1" fill="#B01A45" />
<rect x="89" y="23" width="1" height="1" fill="#B01A45" />
<rect x="90" y="23" width="1" height="1" fill="#B01A45" />
<rect x="91" y="23" width="1" height="1" fill="#B01A45" />
<rect x="92" y="23" width="1" height="1" fill="#B01A45" />
<rect x="38" y="24" width="1" height="1" fill="#B01A45" />
<rect x="39" y="24" width="1" height="1" fill="#B01A45" />
<rect x="40" y="24" width="1" height="1" fill="#B01A45" />
<rect x="41" y="24" width="1" height="1" fill="#B01A45" />
<rect x="42" y="24" width="1" height="1" fill="#B01A45" />
<rect x="43" y="24" width="1" height="1" fill="#B01A45" />
<rect x="44" y="24" width="1" height="1" fill="#B01A45" />
<rect x="45" y="24" width="1" height="1" fill="#B01A45" />
<rect x="46" y="24" width="1" height="1" fill="#B01A45" />
<rect x="47" y="24" width="1" height="1" fill="#B01A45" />
<rect x="48" y="24" width="1" height="1" fill="#B01A45" />
<rect x="49" y="24" width="1" height="1" fill="#B01A45" />
<rect x="50" y="24" width="1" height="1" fill="#B01A45" />
<rect x="51" y="24" width="1" height="1" fill="#B01A45" />
<rect x="52" y="24" width="1" height="1" fill="#B01A45" />
<rect x="53" y="24" width="1" height="1" fill="#B01A45" />
<rect x="54" y="24" width="1" height="1" fill="#B01A45" />
<rect x="55" y="24" width="1" height="1" fill="#B01A45" />
<rect x="56" y="24" width="1" height="1" fill="#B01A45" />
<rect x="57" y="24" width="1" height="1" fill="#B01A45" />
<rect x="58" y="24" width="1" height="1" fill="#B01A45" />
<rect x="69" y="24" width="1" height="1" fill="#B01A45" />
<rect x="70" y="24" width="1" height="1" fill="#B01A45" />
<rect x="71" y="24" width="1" height="1" fill="#B01A45" />
<rect x="72" y="24" width="1" height="1" fill="#B01A45" />
<rect x="73" y="24" width="1" height="1" fill="#B01A45" />
<rect x="74" y="24" width="1" height="1" fill="#B01A45" />
<rect x="75" y="24" width="1" height="1" fill="#B01A45" />
<rect x="76" y="24" width="1" height="1" fill="#B01A45" />
<rect x="77" y="24" width="1" height="1" fill="#B01A45" />
<rect x="78" y="24" width="1" height="1" fill="#B01A45" />
<rect x="79" y="24" width="1" height="1" fill="#B01A45" />
<rect x="80" y="24" width="1" height="1" fill="#B01A45" />
<rect x="81" y="24" width="1" height="1" fill="#B01A45" />
<rect x="82" y="24" width="1" height="1" fill="#B01A45" />
<rect x="83" y="24" width="1" height="1" fill="#B01A45" />
<rect x="84" y="24" width="1" height="1" fill="#B01A45" />
<rect x="85" y="24" width="1" height="1" fill="#B01A45" />
<rect x="86" y="24" width="1" height="1" fill="#B01A45" />
<rect x="87" y="24" width="1" height="1" fill="#B01A45" />
<rect x="88" y="24" width="1" height="1" fill="#B01A45" />
<rect x="89" y="24" width="1" height="1" fill="#B01A45" />
<rect x="90" y="24" width="1" height="1" fill="#B01A45" />
<rect x="91" y="24" width="1" height="1" fill="#B01A45" />
<rect x="92" y="24" width="1" height="1" fill="#B01A45" />
<rect x="39" y="25" width="1" height="1" fill="#B01A45" />
<rect x="40" y="25" width="1" height="1" fill="#B01A45" />
<rect x="41" y="25" width="1" height="1" fill="#B01A45" />
<rect x="42" y="25" width="1" height="1" fill="#B01A45" />
<rect x="43" y="25" width="1" height="1" fill="#B01A45" />
<rect x="44" y="25" width="1" height="1" fill="#B01A45" />
<rect x="45" y="25" width="1" height="1" fill="#B01A45" />
<rect x="46" y="25" width="1" height="1" fill="#B01A45" />
<rect x="47" y="25" width="1" height="1" fill="#B01A45" />
<rect x="48" y="25" width="1" height="1" fill="#B01A45" />
<rect x="49" y="25" width="1" height="1" fill="#B01A45" />
<rect x="50" y="25" width="1" height="1" fill="#B01A45" />
<rect x="51" y="25" width="1" height="1" fill="#B01A45" />
<rect x="52" y="25" width="1" height="1" fill="#B01A45" />
<rect x="53" y="25" width="1" height="1" fill="#B01A45" />
<rect x="54" y="25" width="1" height="1" fill="#B01A45" />
<rect x="55" y="25" width="1" height="1" fill="#B01A45" />
<rect x="56" y="25" width="1" height="1" fill="#B01A45" />
<rect x="57" y="25" width="1" height="1" fill="#B01A45" />
<rect x="63" y="25" width="1" height="1" fill="#B01A45" />
<rect x="64" y="25" width="1" height="1" fill="#B01A45" />
<rect x="70" y="25" width="1" height="1" fill="#B01A45" />
<rect x="71" y="25" width="1" height="1" fill="#B01A45" />
<rect x="72" y="25" width="1" height="1" fill="#B01A45" />
<rect x="73" y="25" width="1" height="1" fill="#B01A45" />
<rect x="74" y="25" width="1" height="1" fill="#B01A45" />
<rect x="75" y="25" width="1" height="1" fill="#B01A45" />
<rect x="76" y="25" width="1" height="1" fill="#B01A45" />
<rect x="77" y="25" width="1" height="1" fill="#B01A45" />
<rect x="78" y="25" width="1" height="1" fill="#B01A45" />
<rect x="79" y="25" width="1" height="1" fill="#B01A45" />
<rect x="80" y="25" width="1" height="1" fill="#B01A45" />
<rect x="81" y="25" width="1" height="1" fill="#B01A45" />
<rect x="82" y="25" width="1" height="1" fill="#B01A45" />
<rect x="83" y="25" width="1" height="1" fill="#B01A45" />
<rect x="84" y="25" width="1" height="1" fill="#B01A45" />
<rect x="85" y="25" width="1" height="1" fill="#B01A45" />
<rect x="86" y="25" width="1" height="1" fill="#B01A45" />
<rect x="87" y="25" width="1" height="1" fill="#B01A45" />
<rect x="88" y="25" width="1" height="1" fill="#B01A45" />
<rect x="89" y="25" width="1" height="1" fill="#B01A45" />
<rect x="90" y="25" width="1" height="1" fill="#B01A45" />
<rect x="91" y="25" width="1" height="1" fill="#B01A45" />
<rect x="92" y="25" width="1" height="1" fill="#B01A45" />
<rect x="40" y="26" width="1" height="1" fill="#B01A45" />
<rect x="41" y="26" width="1" height="1" fill="#B01A45" />
<rect x="42" y="26" width="1" height="1" fill="#B01A45" />
<rect x="43" y="26" width="1" height="1" fill="#B01A45" />
<rect x="44" y="26" width="1" height="1" fill="#B01A45" />
<rect x="45" y="26" width="1" height="1" fill="#B01A45" />
<rect x="46" y="26" width="1" height="1" fill="#B01A45" />
<rect x="47" y="26" width="1" height="1" fill="#B01A45" />
<rect x="48" y="26" width="1" height="1" fill="#B01A45" />
<rect x="49" y="26" width="1" height="1" fill="#B01A45" />
<rect x="50" y="26" width="1" height="1" fill="#B01A45" />
<rect x="51" y="26" width="1" height="1" fill="#B01A45" />
<rect x="52" y="26" width="1" height="1" fill="#B01A45" />
<rect x="53" y="26" width="1" height="1" fill="#B01A45" />
<rect x="54" y="26" width="1" height="1" fill="#B01A45" />
<rect x="55" y="26" width="1" height="1" fill="#B01A45" />
<rect x="56" y="26" width="1" height="1" fill="#B01A45" />
<rect x="62" y="26" width="1" height="1" fill="#B01A45" />
<rect x="63" y="26" width="1" height="1" fill="#B01A45" />
<rect x="64" y="26" width="1" height="1" fill="#B01A45" />
<rect x="65" y="26" width="1" height="1" fill="#B01A45" />
<rect x="71" y="26" width="1" height="1" fill="#B01A45" />
<rect x="72" y="26" width="1" height="1" fill="#B01A45" />
<rect x="73" y="26" width="1" height="1" fill="#B01A45" />
<rect x="74" y="26" width="1" height="1" fill="#B01A45" />
<rect x="75" y="26" width="1" height="1" fill="#B01A45" />
<rect x="76" y="26" width="1" height="1" fill="#B01A45" />
<rect x="77" y="26" width="1" height="1" fill="#B01A45" />
<rect x="78" y="26" width="1" height="1" fill="#B01A45" />
<rect x="79" y="26" width="1" height="1" fill="#B01A45" />
<rect x="80" y="26" width="1" height="1" fill="#B01A45" />
<rect x="81" y="26" width="1" height="1" fill="#B01A45" />
<rect x="82" y="26" width="1" height="1" fill="#B01A45" />
<rect x="83" y="26" width="1" height="1" fill="#B01A45" />
<rect x="84" y="26" width="1" height="1" fill="#B01A45" />
<rect x="85" y="26" width="1" height="1" fill="#B01A45" />
<rect x="86" y="26" width="1" height="1" fill="#B01A45" />
<rect x="87" y="26" width="1" height="1" fill="#B01A45" />
<rect x="88" y="26" width="1" height="1" fill="#B01A45" />
<rect x="89" y="26" width="1" height="1" fill="#B01A45" />
<rect x="90" y="26" width="1" height="1" fill="#B01A45" />
<rect x="91" y="26" width="1" height="1" fill="#B01A45" />
<rect x="92" y="26" width="1" height="1" fill="#B01A45" />
<rect x="42" y="27" width="1" height="1" fill="#B01A45" />
<rect x="43" y="27" width="1" height="1" fill="#B01A45" />
<rect x="44" y="27" width="1" height="1" fill="#B01A45" />
<rect x="45" y="27" width="1" height="1" fill="#B01A45" />
<rect x="46" y="27" width="1" height="1" fill="#B01A45" />
<rect x="47" y="27" width="1" height="1" fill="#B01A45" />
<rect x="48" y="27" width="1" height="1" fill="#B01A45" />
<rect x="49" y="27" width="1" height="1" fill="#B01A45" />
<rect x="50" y="27" width="1" height="1" fill="#B01A45" />
<rect x="51" y="27" width="1" height="1" fill="#B01A45" />
<rect x="52" y="27" width="1" height="1" fill="#B01A45" />
<rect x="53" y="27" width="1" height="1" fill="#B01A45" />
<rect x="54" y="27" width="1" height="1" fill="#B01A45" />
<rect x="62" y="27" width="1" height="1" fill="#B01A45" />
<rect x="63" y="27" width="1" height="1" fill="#B01A45" />
<rect x="64" y="27" width="1" height="1" fill="#B01A45" />
<rect x="65" y="27" width="1" height="1" fill="#B01A45" />
<rect x="72" y="27" width="1" height="1" fill="#B01A45" />
<rect x="73" y="27" width="1" height="1" fill="#B01A45" />
<rect x="74" y="27" width="1" height="1" fill="#B01A45" />
<rect x="75" y="27" width="1" height="1" fill="#B01A45" />
<rect x="76" y="27" width="1" height="1" fill="#B01A45" />
<rect x="77" y="27" width="1" height="1" fill="#B01A45" />
<rect x="78" y="27" width="1" height="1" fill="#B01A45" />
<rect x="79" y="27" width="1" height="1" fill="#B01A45" />
<rect x="80" y="27" width="1" height="1" fill="#B01A45" />
<rect x="81" y="27" width="1" height="1" fill="#B01A45" />
<rect x="82" y="27" width="1" height="1" fill="#B01A45" />
<rect x="83" y="27" width="1" height="1" fill="#B01A45" />
<rect x="84" y="27" width="1" height="1" fill="#B01A45" />
<rect x="85" y="27" width="1" height="1" fill="#B01A45" />
<rect x="86" y="27" width="1" height="1" fill="#B01A45" />
<rect x="87" y="27" width="1" height="1" fill="#B01A45" />
<rect x="88" y="27" width="1" height="1" fill="#B01A45" />
<rect x="89" y="27" width="1" height="1" fill="#B01A45" />
<rect x="90" y="27" width="1" height="1" fill="#B01A45" />
<rect x="63" y="28" width="1" height="1" fill="#B01A45" />
<rect x="64" y="28" width="1" height="1" fill="#B01A45" />
<rect x="74" y="28" width="1" height="1" fill="#B01A45" />
<rect x="75" y="28" width="1" height="1" fill="#B01A45" />
<rect x="76" y="28" width="1" height="1" fill="#B01A45" />
<rect x="77" y="28" width="1" height="1" fill="#B01A45" />
<rect x="78" y="28" width="1" height="1" fill="#B01A45" />
<rect x="79" y="28" width="1" height="1" fill="#B01A45" />
<rect x="80" y="28" width="1" height="1" fill="#B01A45" />
<rect x="81" y="28" width="1" height="1" fill="#B01A45" />
<rect x="82" y="28" width="1" height="1" fill="#B01A45" />
<rect x="83" y="28" width="1" height="1" fill="#B01A45" />
<rect x="84" y="28" width="1" height="1" fill="#B01A45" />
<rect x="85" y="28" width="1" height="1" fill="#B01A45" />
<rect x="86" y="28" width="1" height="1" fill="#B01A45" />
<rect x="87" y="28" width="1" height="1" fill="#B01A45" />
<rect x="88" y="28" width="1" height="1" fill="#B01A45" />
</svg>